<svg width="27" height="26" viewBox="0 0 27 26" fill="none" xmlns="http://www.w3.org/2000/svg">
<path d="M16.9067 7.43541L16.9067 7.43551C17.1735 8.06883 17.7744 8.49778 18.4597 8.55206L25.4811 9.10817C26.2363 9.16799 26.5206 10.0842 25.9632 10.5559L20.6137 15.083L20.6137 15.083C20.0886 15.5275 19.8569 16.2275 20.0184 16.8962L21.6527 23.6651C21.8214 24.3637 21.0455 24.9524 20.3926 24.5585L14.3814 20.9311C13.7931 20.5761 13.0542 20.5761 12.466 20.9311C12.466 20.9311 12.466 20.9311 12.466 20.9311L6.45468 24.5585C5.80182 24.9524 5.02586 24.3637 5.19454 23.6651L6.82892 16.8962C6.99042 16.2275 6.75889 15.5275 6.2337 15.083L6.23366 15.083L0.884071 10.5559C0.326643 10.0842 0.610917 9.16799 1.3662 9.10817L8.38762 8.55206C9.07301 8.49778 9.6739 8.06884 9.94058 7.43541L12.6457 1.01023C12.9322 0.329598 13.9151 0.329597 14.2017 1.01023L16.9067 7.43541Z" fill="#006B6A" stroke="#70FF00"/>
</svg>
