<svg width="27" height="26" viewBox="0 0 27 26" fill="none" xmlns="http://www.w3.org/2000/svg">
<path d="M12.185 0.816214C12.6433 -0.272398 14.2043 -0.272397 14.6626 0.816217L17.3676 7.2414C17.561 7.70033 17.9979 8.01391 18.4993 8.05362L25.5207 8.60973C26.7103 8.70395 27.1927 10.1706 26.2863 10.9376L20.9368 15.4646C20.5547 15.7881 20.3878 16.2955 20.5045 16.7789L22.1389 23.5478C22.4158 24.6946 21.153 25.6011 20.1345 24.9866L14.1232 21.3592C13.6938 21.1001 13.1538 21.1001 12.7244 21.3592L6.71311 24.9866C5.6946 25.6011 4.43173 24.6946 4.70863 23.5478L6.34302 16.7789C6.45976 16.2955 6.29288 15.7881 5.91079 15.4646L0.561204 10.9376C-0.34517 10.1706 0.137211 8.70395 1.32684 8.60973L8.34826 8.05362C8.84979 8.01391 9.28666 7.70033 9.47988 7.2414L12.185 0.816214Z" fill="#70FF00"/>
</svg>
